<?xml version="1.0" standalone="no"?>
<!DOCTYPE svg PUBLIC "-//W3C//DTD SVG 20010904//EN"
 "http://www.w3.org/TR/2001/REC-SVG-20010904/DTD/svg10.dtd">
<svg version="1.0" xmlns="http://www.w3.org/2000/svg"
 width="1920.000000pt" height="1080.000000pt" viewBox="0 0 1920.000000 1080.000000"
 preserveAspectRatio="xMidYMid meet">

<g transform="translate(0.000000,1080.000000) scale(0.100000,-0.100000)"
fill="#000000" stroke="none">
<path d="M11520 8535 c-8 -9 -15 -23 -16 -31 -2 -13 34 -48 58 -56 8 -3 8 -10
-1 -25 -12 -23 -26 -23 -109 -2 -27 8 -78 9 -140 5 -53 -3 -189 -9 -302 -12
-113 -3 -222 -10 -243 -14 -20 -4 -52 -5 -70 0 -33 7 -173 4 -213 -5 -12 -3
-41 2 -64 10 -42 15 -82 14 -152 -5 -94 -25 -107 -27 -119 -19 -7 4 -18 4 -24
-1 -7 -6 -22 -3 -40 6 -21 11 -76 16 -204 19 -97 3 -241 8 -321 11 -218 10
-410 8 -458 -3 -52 -13 -74 -30 -53 -42 11 -7 10 -11 -5 -19 -18 -11 -18 -11
1 -26 19 -14 15 -15 -50 -16 -69 0 -128 9 -314 50 -52 11 -105 20 -118 20 -13
0 -23 5 -23 11 0 6 -19 10 -47 8 -27 -1 -56 2 -66 6 -23 9 -36 -3 -17 -15 12
-8 10 -10 -7 -10 -15 0 -21 5 -17 14 4 11 0 13 -15 9 -11 -3 -18 -9 -15 -14 3
-5 -1 -7 -8 -4 -37 12 -329 31 -556 36 -129 2 -150 10 -122 44 7 9 11 18 8 20
-2 2 -30 -24 -63 -60 -32 -35 -61 -62 -65 -60 -4 3 -13 -2 -20 -10 -7 -8 -9
-15 -4 -15 5 0 -7 -8 -26 -18 -19 -10 -42 -32 -50 -48 -10 -18 -21 -28 -32
-26 -10 2 -37 -9 -62 -23 -25 -14 -55 -27 -68 -29 -13 -1 -28 -5 -33 -8 -6 -3
-31 -11 -57 -18 -39 -10 -47 -16 -45 -33 1 -14 -5 -23 -17 -25 -14 -3 -17 0
-13 12 6 14 3 15 -16 5 -56 -29 -107 -65 -107 -76 0 -7 -7 -13 -15 -13 -8 0
-20 -9 -27 -20 -7 -11 -19 -20 -26 -20 -7 0 -10 -5 -6 -11 5 -9 49 -10 155 -6
l148 5 98 69 c54 38 125 88 158 111 90 64 117 74 188 68 121 -10 512 -58 529
-64 14 -6 4 -20 -50 -77 l-67 -70 34 -3 c26 -3 40 3 65 27 18 17 37 31 44 31
7 0 32 18 56 40 l43 40 159 -20 c87 -10 184 -24 214 -30 48 -9 151 -7 310 5
25 2 108 5 185 6 126 2 134 3 75 10 -114 15 -936 107 -1190 134 -426 44 -505
58 -468 81 7 5 143 10 301 12 297 4 323 2 782 -50 134 -15 262 -21 500 -23
176 -1 328 -3 338 -4 12 -1 17 -10 17 -31 0 -24 4 -30 23 -31 12 -1 34 -3 50
-5 25 -3 27 0 27 30 0 31 3 34 38 40 20 3 253 6 518 6 495 0 489 0 774 45 128
21 549 18 588 -3 12 -7 20 -17 18 -21 -7 -11 -110 -38 -191 -50 -133 -20 -586
-75 -710 -86 -51 -5 -152 -17 -170 -20 -5 -1 -38 -3 -73 -3 -81 -2 -72 -18 15
-26 60 -6 165 2 374 30 43 6 49 4 75 -25 15 -17 41 -38 58 -47 34 -16 116 -31
116 -20 0 4 -21 29 -47 57 -25 27 -44 51 -42 53 2 2 90 13 194 25 408 47 385
46 425 19 14 -9 51 -24 83 -34 31 -10 57 -21 57 -26 0 -4 -4 -8 -10 -8 -21 0
-9 -20 24 -42 19 -13 66 -44 104 -71 67 -45 74 -48 154 -52 135 -8 221 -15
252 -21 16 -3 36 -2 45 1 21 8 -51 72 -91 80 -16 4 -32 13 -35 21 -3 8 -10 14
-17 14 -6 0 -17 9 -24 21 -9 13 -19 18 -32 14 -13 -4 -26 4 -45 30 -15 19 -33
35 -40 35 -7 0 -18 7 -25 15 -7 8 -23 15 -36 15 -13 0 -24 4 -24 9 0 14 -114
81 -137 81 -11 0 -33 11 -49 25 -16 14 -62 46 -101 72 -61 38 -72 49 -67 67 6
23 -31 80 -46 71 -5 -3 -10 0 -12 6 -2 7 -9 5 -18 -6z"/>
<path d="M9468 8103 c7 -3 16 -2 19 1 4 3 -2 6 -13 5 -11 0 -14 -3 -6 -6z"/>
<path d="M9538 8090 c17 -6 32 -17 32 -25 0 -8 -1 -15 -2 -16 -4 0 -61 -7
-221 -25 -154 -17 -184 -23 -165 -35 18 -12 101 -11 236 2 89 9 116 9 122 -1
8 -13 111 -11 121 2 3 5 49 4 103 -1 54 -6 212 -7 350 -3 l251 6 -150 23
c-347 52 -752 96 -677 73z"/>
<path d="M6730 7955 c-13 -14 -31 -25 -40 -25 -19 0 -60 -40 -60 -58 0 -17 20
-15 26 3 3 8 25 25 48 39 49 28 71 52 58 60 -5 3 -20 -6 -32 -19z"/>
<path d="M12406 7954 c-23 -22 -21 -27 27 -61 34 -24 46 -39 52 -69 11 -59 14
-370 4 -449 -5 -38 -10 -140 -12 -225 l-2 -155 -200 0 c-710 1 -1076 6 -1070
15 7 12 -197 12 -287 1 -32 -4 -58 -3 -58 1 0 4 -9 8 -21 8 -11 0 -18 -4 -15
-8 3 -5 -1 -9 -9 -9 -8 0 -15 4 -15 9 0 4 -14 8 -31 8 -17 0 -28 -4 -24 -10 4
-6 -17 -10 -54 -10 -34 0 -61 4 -61 10 0 6 -15 11 -32 11 l-33 2 35 7 35 7
-26 10 c-14 6 -55 14 -89 17 -35 3 -68 10 -73 15 -11 11 -38 3 -49 -13 -5 -7
-8 -7 -8 2 0 6 -10 12 -22 12 -39 0 -67 11 -73 29 -3 9 -24 21 -47 27 -24 7
-68 19 -98 28 -30 9 -85 24 -122 33 -38 10 -68 22 -68 29 0 7 32 14 88 18 48
3 110 10 137 14 l50 7 -62 14 c-34 7 -72 11 -85 8 -25 -7 -143 9 -169 23 -9 5
-45 8 -80 8 -35 0 -102 5 -149 11 -95 12 -278 12 -285 0 -10 -15 28 -39 58
-39 33 1 51 -2 127 -20 25 -6 77 -17 115 -24 39 -8 84 -19 100 -26 17 -7 32
-14 35 -15 3 -1 18 -7 33 -13 16 -7 35 -12 44 -12 8 0 17 -9 20 -20 3 -12 14
-20 27 -20 12 0 26 -4 32 -8 5 -5 47 -19 94 -31 76 -20 114 -35 172 -66 56
-30 17 -32 -574 -35 -1386 -6 -2719 -4 -2792 3 -53 5 -83 13 -91 23 -10 14
-12 14 -24 0 -13 -15 -45 -11 -35 5 3 5 0 9 -5 9 -6 0 -11 7 -11 15 0 8 -7 15
-15 15 -8 0 -15 6 -16 13 0 6 -4 59 -9 117 -10 109 -39 575 -40 623 0 15 -4
27 -9 27 -13 0 -13 -229 -1 -320 5 -41 14 -175 19 -297 8 -169 14 -229 26
-252 8 -17 20 -31 24 -31 5 0 15 -17 21 -37 7 -21 19 -45 27 -54 16 -19 58
-438 54 -549 -1 -19 3 -75 9 -125 12 -119 16 -173 45 -695 13 -245 27 -465 30
-490 3 -25 19 -299 35 -610 16 -311 32 -617 35 -680 13 -239 55 -828 65 -900
6 -41 12 -106 15 -145 3 -38 7 -81 10 -95 2 -14 7 -81 11 -150 4 -69 8 -147 9
-175 2 -27 3 -117 3 -200 -1 -561 2 -688 22 -740 9 -23 7 -25 -15 -25 -14 0
-25 5 -25 11 0 5 -3 8 -7 6 -5 -2 -21 2 -38 9 -16 7 -24 13 -17 14 20 0 4 20
-17 20 -13 0 -17 9 -17 39 0 50 -23 121 -40 121 -16 0 -26 28 -11 34 8 3 7 8
-5 16 -9 6 -15 17 -12 25 4 8 1 15 -5 15 -6 0 -11 -10 -11 -21 0 -16 -5 -20
-19 -16 -14 3 -17 0 -14 -14 3 -10 12 -20 22 -22 14 -4 14 -5 -1 -6 -9 0 -23
11 -30 26 -16 34 -54 46 -44 15 8 -24 -7 -36 -33 -27 -18 5 -18 7 5 32 13 14
24 32 24 40 0 8 4 11 10 8 5 -3 7 0 4 8 -3 8 0 18 6 22 8 5 7 12 -5 25 -9 10
-15 21 -14 26 5 26 -1 35 -15 22 -12 -11 -11 -17 6 -41 l20 -28 -30 -37 c-28
-35 -33 -37 -88 -37 -54 0 -61 3 -91 35 -36 37 -38 45 -23 86 8 20 8 30 -1 38
-9 8 -10 8 -5 -1 3 -6 -1 -28 -11 -48 -17 -35 -17 -38 0 -67 9 -16 15 -34 12
-39 -3 -5 -2 -17 4 -27 6 -11 6 -24 0 -33 -5 -7 -9 -9 -9 -4 0 14 -38 17 -62
4 -10 -5 -18 -16 -18 -23 0 -8 -7 -17 -16 -20 -9 -4 -14 -13 -10 -21 3 -10 -1
-18 -12 -21 -9 -3 -25 -10 -34 -15 -13 -7 -18 -5 -18 5 0 8 -8 17 -18 21 -18
5 -33 40 -47 107 -3 16 -10 28 -15 28 -6 0 -6 9 0 25 6 16 6 25 -1 25 -6 0 -6
8 2 21 6 12 7 19 1 15 -12 -7 -19 18 -18 66 1 20 -1 35 -4 33 -3 -2 -5 30 -5
71 0 41 -3 74 -7 74 -4 0 -6 14 -4 32 2 18 0 41 -4 53 -13 32 -3 -226 16 -402
7 -73 16 -117 25 -135 5 -10 8 -18 5 -18 -6 0 31 -140 39 -148 11 -11 162 -20
446 -28 234 -6 270 -5 298 9 27 14 45 15 108 7 58 -8 4482 -14 4620 -7 12 1
20 4 17 8 -5 9 -450 11 -2764 15 -993 1 -1823 5 -1845 8 -22 2 -41 9 -43 15
-2 6 -12 11 -22 11 -21 0 -25 15 -40 145 -13 119 -13 272 0 280 8 5 8 11 0 20
-17 21 -36 173 -24 193 11 17 57 29 122 33 18 1 35 6 38 11 3 4 25 8 50 8 24
0 44 4 44 9 0 6 184 10 470 10 436 1 499 3 540 18 40 16 81 18 287 13 97 -3
158 -8 150 -13 -7 -5 12 -7 46 -3 48 4 58 2 53 -10 -4 -10 2 -14 20 -14 14 0
23 4 20 8 -3 4 14 7 37 6 23 -1 42 -3 42 -3 0 -2 213 -9 435 -14 235 -6 388
-6 495 -2 44 2 197 6 340 10 143 3 261 8 264 10 2 2 12 0 23 -6 14 -8 34 -7
71 2 29 7 71 12 94 10 33 -2 42 1 46 16 4 17 5 17 6 0 1 -17 14 -18 184 -16
200 3 472 -7 488 -17 6 -3 31 -3 57 1 108 16 296 16 360 -1 34 -10 62 -21 62
-25 0 -5 7 -9 15 -9 8 0 23 -10 35 -22 11 -12 20 -18 20 -14 0 5 10 -4 22 -20
22 -27 23 -38 22 -179 0 -82 -4 -214 -8 -292 -10 -168 -9 -171 81 -178 228
-17 589 -28 646 -19 20 4 37 11 37 16 0 6 -8 7 -17 4 -17 -7 -190 -8 -268 -1
-22 1 -86 4 -142 5 -57 1 -100 6 -97 11 3 5 -1 9 -8 10 -50 3 -115 28 -123 47
-6 15 -8 15 -15 -3 -9 -20 -10 -16 -14 68 -1 10 -7 22 -14 26 -9 5 -11 28 -7
77 2 38 9 139 15 224 11 163 15 190 31 190 5 0 9 7 9 15 0 8 5 15 11 15 6 0 8
7 5 16 -5 13 -2 15 14 11 15 -4 22 1 26 19 3 13 12 24 19 24 7 0 15 7 19 15 3
8 12 15 21 15 8 0 28 14 43 32 52 60 93 98 108 98 8 0 25 24 38 54 30 68 53
82 142 90 79 7 76 8 155 -79 42 -47 92 -85 113 -85 8 0 22 -7 30 -16 9 -8 20
-13 25 -10 5 4 12 0 15 -6 3 -7 3 -2 0 12 -2 14 0 50 5 80 8 47 6 56 -9 67
-13 9 -18 27 -19 67 0 31 -13 99 -27 153 -14 54 -29 109 -32 122 -2 13 -15 43
-29 68 -22 43 -23 49 -13 131 6 48 15 103 20 122 5 19 18 105 30 190 28 213
33 242 53 290 23 55 41 148 52 265 6 68 18 156 45 335 11 69 26 192 35 275 9
82 19 153 21 157 2 4 6 33 9 65 5 58 14 120 35 241 10 56 10 66 -6 83 -9 10
-14 22 -11 26 4 3 7 1 7 -5 0 -7 5 -12 10 -12 6 0 10 14 10 31 0 16 -4 28 -8
25 -4 -2 -8 20 -8 50 1 57 15 77 17 22 0 -18 3 -26 6 -18 3 8 11 29 18 45 15
35 17 102 4 111 -8 4 -11 -4 -11 -26 0 -3 -9 -14 -19 -24 -19 -19 -19 -19 -19
11 0 17 5 33 10 35 6 2 12 23 13 48 2 25 9 55 15 68 15 26 14 27 -27 6 -23
-12 -31 -22 -31 -42 0 -15 -4 -54 -10 -87 -6 -33 -10 -68 -11 -77 0 -10 -4
-18 -10 -18 -5 0 -9 -22 -9 -49 0 -28 -4 -53 -10 -56 -5 -3 -10 1 -10 9 0 9
-5 16 -11 16 -7 0 -8 -7 -4 -17 10 -23 9 -36 -4 -98 -6 -27 -17 -75 -23 -105
-7 -30 -13 -75 -15 -100 -1 -25 -3 -82 -5 -128 -4 -67 -8 -85 -24 -96 -16 -13
-17 -18 -7 -35 8 -13 9 -22 3 -26 -6 -3 -10 -17 -10 -30 0 -13 -4 -26 -9 -30
-5 -3 -7 -21 -4 -40 4 -24 1 -41 -9 -53 -9 -9 -18 -39 -21 -67 -6 -61 -27
-163 -38 -190 -8 -22 -22 -135 -25 -205 -1 -25 -5 -53 -9 -63 -4 -10 -2 -24 5
-32 9 -11 9 -25 0 -65 -7 -28 -10 -54 -6 -57 3 -3 2 -11 -3 -17 -10 -13 -24
-126 -22 -173 0 -18 -3 -33 -8 -33 -5 0 -12 -44 -16 -97 -3 -54 -13 -123 -20
-153 -7 -30 -18 -80 -25 -111 l-11 -56 -41 20 c-37 19 -41 19 -50 4 -5 -10
-19 -18 -31 -18 -17 -1 -18 -2 -4 -6 20 -5 23 -33 3 -33 -8 0 -16 7 -20 15 -4
12 -10 11 -29 -8 -29 -27 -40 -54 -24 -61 7 -3 0 -3 -14 0 -20 4 -33 -1 -54
-23 -14 -15 -31 -38 -36 -50 -9 -25 -38 -30 -70 -13 -23 13 -25 39 -4 66 8 11
14 42 15 74 0 31 7 105 15 165 8 61 17 166 19 235 2 69 7 139 10 155 3 17 8
48 10 70 3 22 8 59 12 83 5 30 3 42 -6 42 -8 0 -9 4 -3 13 5 6 10 38 12 70 3
55 2 57 -21 54 -23 -4 -23 -5 -26 -158 -1 -88 -8 -177 -15 -206 -8 -28 -10
-58 -6 -66 5 -7 4 -27 -1 -43 -7 -24 -8 -25 -9 -6 -2 39 -21 24 -21 -17 0 -27
-5 -41 -16 -45 -11 -4 -14 -13 -11 -28 3 -11 2 -43 -3 -69 -5 -26 -10 -81 -11
-121 -1 -40 -4 -77 -7 -83 -4 -5 -7 -14 -7 -20 -3 -31 -19 -65 -31 -65 -24 0
-17 401 11 690 10 98 25 311 35 500 6 102 12 192 15 200 2 8 9 96 15 195 6 99
17 268 25 375 13 176 27 380 55 800 5 80 16 246 25 370 8 124 22 326 30 450 9
124 18 248 20 275 2 28 7 99 10 160 4 60 8 112 10 115 2 3 6 55 10 115 10 196
15 259 22 325 4 36 7 98 8 138 0 39 2 72 5 72 3 0 4 54 3 120 -1 89 2 118 10
113 9 -5 9 -3 1 8 -6 8 -14 30 -18 49 -12 61 -96 109 -130 74z m-238 -1274 c3
-8 1 -12 -3 -8 -8 7 -115 -99 -115 -115 0 -5 -7 -15 -16 -21 -14 -10 -15 -37
-13 -192 1 -98 2 -243 1 -321 -1 -78 2 -144 7 -147 10 -6 83 21 91 34 8 12 90
23 90 12 0 -5 -9 -21 -21 -36 -11 -14 -21 -34 -22 -45 0 -11 -5 -17 -9 -15 -4
3 -8 -2 -8 -10 0 -9 -6 -16 -14 -16 -8 0 -18 -9 -21 -20 -3 -11 -11 -20 -16
-20 -6 0 -7 -6 -3 -12 4 -7 4 -10 -1 -6 -11 11 -36 -12 -28 -25 4 -6 0 -8 -10
-4 -11 4 -17 1 -17 -8 0 -8 -7 -15 -15 -15 -8 0 -19 -9 -24 -19 -15 -28 -359
-284 -371 -276 -6 4 -9 1 -8 -7 2 -7 -3 -12 -9 -11 -7 2 -13 -2 -13 -7 0 -6
-7 -10 -16 -10 -8 0 -12 -4 -9 -10 5 -9 -9 -15 -18 -7 -2 1 -12 -7 -23 -17
-33 -34 -124 -87 -136 -80 -6 4 -8 3 -5 -3 6 -9 -83 -73 -101 -73 -3 0 -15 -9
-26 -19 -12 -10 -66 -49 -121 -85 -175 -115 -201 -136 -333 -265 -136 -133
-182 -175 -182 -165 0 4 -10 -5 -21 -20 -12 -15 -27 -25 -34 -22 -7 2 -18 -6
-25 -18 -6 -12 -24 -30 -38 -39 -15 -9 -39 -27 -54 -41 -15 -14 -32 -27 -39
-28 -6 -2 -21 -12 -34 -23 -38 -35 -65 -55 -65 -49 0 4 -6 1 -13 -5 -8 -6 -17
-8 -20 -4 -4 3 -7 1 -7 -6 0 -8 -8 -11 -19 -8 -13 3 -18 1 -14 -8 7 -19 -36
-40 -50 -26 -8 8 -7 11 3 11 11 0 11 3 2 12 -23 23 -12 46 53 111 36 36 65 71
65 77 0 13 71 86 81 83 4 -1 5 7 2 17 -3 11 -1 26 4 33 6 6 11 61 12 120 1 60
6 119 11 133 6 16 6 24 -1 24 -6 0 -7 9 -3 23 10 30 5 210 -6 217 -5 3 -12 18
-16 34 -6 25 -10 27 -38 21 -17 -3 -38 -8 -45 -9 -8 -2 -17 -8 -19 -14 -2 -7
-9 -12 -16 -12 -6 0 -32 -18 -56 -40 -25 -22 -51 -38 -57 -35 -7 2 -13 -2 -13
-10 0 -8 -5 -15 -10 -15 -6 0 -32 -22 -58 -48 -26 -27 -76 -73 -111 -103 -35
-30 -83 -72 -106 -94 -52 -50 -94 -85 -101 -85 -3 0 -19 -13 -37 -30 -18 -16
-38 -30 -44 -30 -7 0 -13 -7 -13 -15 0 -17 -23 -11 -57 15 -16 13 -19 20 -11
28 7 7 8 15 4 19 -12 12 -26 -20 -19 -45 4 -16 -2 -29 -22 -48 -33 -30 -40
-92 -24 -195 6 -35 11 -71 13 -79 1 -9 5 -20 8 -25 4 -6 16 -94 29 -195 18
-153 25 -188 41 -202 15 -13 18 -25 13 -48 -4 -16 -11 -30 -16 -30 -5 0 -9 -7
-9 -15 0 -31 -89 -108 -354 -304 -103 -75 -621 -461 -631 -469 -29 -23 -75
-53 -75 -49 0 3 -15 -9 -33 -26 -18 -18 -75 -63 -126 -102 -52 -38 -121 -93
-155 -120 -97 -80 -138 -110 -186 -136 -25 -13 -47 -27 -48 -32 -2 -4 -8 -5
-13 -1 -5 3 -12 -1 -15 -10 -3 -9 -12 -12 -22 -9 -9 4 -14 3 -10 -1 3 -4 -23
-28 -58 -52 -36 -25 -121 -94 -189 -154 -69 -60 -138 -116 -155 -125 -16 -9
-30 -19 -30 -24 0 -4 -16 -16 -35 -27 -19 -10 -35 -23 -35 -28 0 -5 -3 -6 -6
-3 -4 4 -14 -2 -23 -12 -21 -24 -122 -73 -138 -67 -7 3 -13 1 -13 -3 0 -5 -14
-14 -31 -20 -43 -15 -46 -14 -23 5 19 15 18 15 -3 11 -12 -3 -24 0 -26 7 -4
11 20 56 36 67 5 3 2 9 -6 12 -10 4 -13 13 -10 26 3 11 -2 34 -11 52 -9 18
-16 42 -16 55 0 17 -4 22 -15 18 -17 -7 -20 7 -5 22 7 7 6 23 -3 50 -8 21 -15
75 -16 119 -2 103 -14 190 -26 188 -6 -1 -9 29 -7 72 4 87 4 87 163 212 122
97 558 441 744 587 72 56 191 149 265 207 74 57 182 141 240 186 58 46 138
109 179 141 40 31 111 86 157 122 46 36 135 103 199 150 63 47 123 91 132 97
32 25 6 22 -30 -3 -20 -13 -37 -22 -37 -18 0 4 -11 -3 -24 -15 -15 -14 -30
-20 -37 -16 -7 5 -10 4 -5 -3 6 -10 -37 -50 -59 -54 -5 -1 -18 -11 -28 -22
-10 -12 -16 -15 -12 -9 4 8 1 11 -9 7 -18 -7 -76 22 -76 38 0 6 -3 8 -6 5 -4
-4 -14 1 -23 11 -9 10 -29 26 -46 36 -54 34 -125 98 -119 107 3 5 -4 9 -15 9
-11 0 -24 6 -28 13 -4 7 -26 24 -48 37 -47 28 -54 34 -99 78 -19 17 -39 32
-45 32 -6 0 -8 7 -5 15 5 11 2 13 -12 8 -12 -4 -15 -3 -10 5 4 7 1 12 -8 12
-13 0 -105 66 -276 201 -36 28 -108 83 -160 122 -52 39 -97 74 -100 77 -5 6
-44 37 -220 170 -47 36 -91 71 -98 77 -7 7 -41 34 -75 59 -34 26 -70 57 -79
68 -10 12 -18 18 -18 14 0 -4 -14 7 -31 25 -17 17 -34 32 -38 32 -4 0 -27 19
-52 42 -24 23 -61 54 -81 70 -20 15 -42 38 -49 50 -7 12 -16 20 -21 17 -4 -3
-16 8 -26 25 -9 17 -25 31 -36 31 -12 0 -16 5 -12 15 3 8 2 14 -2 13 -22 -6
-53 17 -59 43 -3 16 -9 29 -13 29 -4 0 -7 12 -6 26 1 23 4 25 36 19 19 -4 37
-11 38 -16 2 -5 13 -9 23 -9 11 0 18 -4 14 -9 -3 -5 4 -12 15 -16 11 -3 20
-11 20 -16 0 -6 5 -7 11 -4 5 4 19 -1 29 -10 16 -15 22 -15 35 -5 13 10 15 9
15 -10 0 -13 8 -29 18 -36 26 -20 35 -16 18 8 -9 12 -16 37 -16 54 0 53 -8 64
-50 64 -37 0 -60 13 -42 24 4 2 6 20 4 39 -4 39 -41 64 -70 48 -18 -10 -53 16
-35 27 7 4 9 26 6 54 -3 26 -9 45 -14 43 -14 -9 -31 34 -21 52 6 10 5 25 -4
42 -8 15 -11 40 -8 62 3 20 1 60 -5 90 -13 64 -3 116 22 111 11 -2 21 7 28 25
6 15 16 31 22 35 7 4 55 8 107 8 71 0 105 -5 135 -19 22 -10 139 -94 260 -187
121 -93 236 -180 255 -194 19 -13 107 -81 195 -150 235 -186 553 -435 608
-478 50 -38 211 -164 237 -185 8 -7 69 -54 135 -105 245 -190 318 -247 334
-263 9 -8 63 -51 121 -95 58 -43 118 -91 134 -105 l28 -26 -32 -36 c-45 -51
-28 -46 34 11 29 26 79 67 112 92 32 25 104 80 159 123 120 94 115 91 190 147
33 25 73 57 90 72 16 14 75 61 130 104 55 43 105 82 110 86 6 5 39 31 75 59
36 28 72 56 80 62 211 166 287 225 309 242 14 10 78 60 141 110 63 49 133 104
154 120 21 17 84 65 140 108 56 44 162 125 236 182 74 57 189 146 255 198 67
52 135 102 152 110 17 9 66 19 109 22 43 3 80 8 83 11 9 9 34 -1 39 -16z
m-4083 -115 c14 -13 25 -33 25 -43 0 -11 7 -22 15 -26 9 -3 15 -17 15 -33 -1
-32 5 -81 13 -103 3 -8 10 -49 17 -90 6 -41 16 -85 21 -98 10 -27 12 -96 2
-105 -3 -4 -12 -2 -20 4 -7 7 -32 13 -54 15 -22 2 -47 11 -55 19 -9 8 -18 15
-22 15 -4 0 -24 16 -45 35 -30 28 -37 41 -36 67 1 18 -2 108 -6 201 l-8 167
57 0 c47 0 61 -4 81 -25z m1435 5 c6 -9 10 -325 10 -806 l0 -792 -25 12 c-28
13 -34 28 -7 20 14 -5 15 -4 2 5 -8 6 -21 11 -28 11 -7 0 -20 7 -28 15 -9 8
-13 15 -9 15 3 0 -2 11 -11 25 -9 14 -23 25 -30 25 -8 0 -14 3 -13 8 2 15 -14
52 -21 47 -4 -3 -14 3 -21 12 -12 15 -12 16 4 10 22 -8 22 -2 -3 23 -11 11
-20 16 -20 10 0 -5 -4 -10 -9 -10 -23 0 -47 250 -44 470 4 278 7 357 10 303 3
-44 7 -53 23 -53 10 0 20 -6 22 -12 5 -15 38 13 38 31 0 14 -6 14 -31 1 -15
-9 -19 -7 -19 7 0 15 -2 16 -10 3 -5 -8 -10 -10 -10 -5 1 6 7 19 15 29 9 12
11 22 5 26 -6 4 -6 35 -1 85 7 70 9 74 10 28 1 -40 5 -55 20 -62 10 -6 21 -8
23 -5 3 2 3 -7 1 -21 -4 -19 -1 -25 12 -25 13 0 16 6 11 26 -4 15 -2 32 5 40
8 10 10 39 5 92 -8 104 -8 242 0 326 5 51 12 74 26 85 24 20 86 21 98 1z m365
6 c28 1 240 3 472 5 487 5 456 11 459 -89 1 -31 5 -131 10 -222 10 -185 8
-234 -12 -298 -7 -25 -10 -50 -7 -55 3 -6 1 -7 -5 -3 -7 4 -12 1 -12 -6 0 -25
-25 -68 -43 -74 -9 -3 -14 -10 -11 -16 4 -7 2 -8 -5 -4 -12 8 -68 -51 -63 -67
2 -5 -4 -7 -13 -4 -8 4 -15 2 -15 -3 0 -6 -18 -18 -40 -27 -22 -10 -40 -21
-40 -25 0 -3 -13 -9 -30 -13 -16 -4 -36 -16 -44 -27 -23 -32 -73 -60 -79 -44
-7 17 -58 9 -55 -8 3 -13 -33 -76 -44 -76 -4 0 -8 -7 -8 -15 0 -8 -18 -26 -40
-40 -21 -13 -61 -45 -87 -70 -26 -24 -54 -45 -62 -45 -8 0 -11 -6 -7 -16 3 -9
2 -12 -5 -9 -5 4 -21 -5 -34 -19 -13 -14 -29 -26 -35 -26 -6 0 -8 -5 -4 -12 5
-7 3 -8 -6 -3 -7 4 -15 3 -19 -2 -10 -16 -118 -74 -131 -71 -7 2 -15 -3 -17
-10 -3 -8 1 -10 14 -5 27 9 9 -6 -28 -25 -18 -10 -34 -25 -35 -34 -3 -27 -37
-66 -62 -73 -14 -3 -20 -10 -16 -17 5 -8 2 -9 -10 -5 -9 4 -15 3 -12 -2 3 -5
-2 -15 -11 -22 -13 -11 -15 -11 -9 -1 4 7 2 19 -4 28 -10 11 -11 182 -6 767 4
413 10 760 12 769 6 20 42 27 104 19 25 -3 68 -5 95 -5z m-2245 -7 c0 -8 4 -8
13 -2 6 5 40 10 73 12 75 3 74 6 80 -149 4 -98 2 -112 -9 -98 -8 10 -17 15
-20 11 -4 -3 -7 -1 -7 6 0 7 -4 9 -10 6 -5 -3 -10 1 -10 9 0 9 -8 16 -17 17
-10 0 -13 3 -6 5 13 6 -37 60 -51 56 -5 -2 -6 4 -2 13 5 13 2 14 -16 4 -17 -9
-23 -8 -30 5 -5 9 -14 16 -19 16 -13 0 -35 21 -37 35 -1 6 -9 18 -17 28 -19
22 -19 25 3 30 34 9 82 7 82 -4z m3610 -100 c0 -54 -4 -100 -10 -104 -5 -3 -6
-15 -1 -28 5 -12 5 -31 0 -42 -4 -11 -8 -14 -8 -6 -2 25 -16 0 -16 -27 0 -21
-4 -26 -20 -24 -11 2 -27 11 -35 19 -8 9 -10 13 -3 9 14 -8 43 3 43 16 0 5 -4
6 -10 3 -5 -3 -10 -1 -10 4 0 6 -6 11 -14 11 -20 0 -21 12 -18 140 3 108 5
116 25 126 12 5 34 8 50 5 l27 -3 0 -99z m198 100 c25 6 34 7 70 3 32 -4 0
-110 -42 -137 -14 -10 -26 -25 -26 -34 0 -14 -2 -14 -10 -1 -9 13 -12 12 -25
-4 -8 -11 -15 -15 -15 -9 0 7 5 15 10 18 6 3 10 13 10 21 0 9 -5 12 -12 8 -8
-5 -9 -2 -5 10 4 10 7 45 8 79 0 34 3 57 5 50 3 -7 15 -9 32 -4z m-3308 -30
c0 -5 -4 -9 -10 -9 -5 0 -10 7 -10 16 0 8 5 12 10 9 6 -3 10 -10 10 -16z
m1170 -244 c7 -14 10 -28 6 -32 -4 -4 -9 3 -13 15 -3 12 -9 19 -14 16 -5 -3
-9 2 -9 10 0 24 15 19 30 -9z m-2293 -87 c-3 -7 -5 -2 -5 12 0 14 2 19 5 13 2
-7 2 -19 0 -25z m1439 -45 c15 -6 20 -83 5 -83 -11 0 -19 -30 -14 -47 3 -7 11
-13 18 -13 8 0 11 -7 8 -20 -3 -11 -9 -20 -14 -20 -5 0 -3 -11 3 -25 6 -14 8
-28 4 -33 -10 -10 -38 29 -31 45 2 8 -2 49 -11 94 -12 67 -13 86 -2 116 11 31
14 33 16 14 2 -12 10 -25 18 -28z m-1396 -70 c0 -5 -7 -17 -15 -27 -15 -20
-20 -10 -9 18 6 16 24 22 24 9z m60 -9 c0 -8 -4 -12 -10 -9 -5 3 -10 10 -10
16 0 5 5 9 10 9 6 0 10 -7 10 -16z m80 -94 c0 -5 -4 -10 -10 -10 -5 0 -10 5
-10 10 0 6 5 10 10 10 6 0 10 -4 10 -10z m1280 -95 c0 -8 -7 -15 -15 -15 -16
0 -20 12 -8 23 11 12 23 8 23 -8z m-1424 -218 c8 3 14 0 14 -6 0 -6 6 -11 13
-11 6 0 23 -12 36 -25 13 -14 27 -25 32 -25 13 0 113 -75 166 -124 24 -21 51
-44 61 -50 45 -26 100 -68 142 -107 25 -23 70 -60 100 -82 30 -23 68 -53 83
-67 16 -14 46 -32 67 -40 22 -8 52 -30 68 -48 28 -31 30 -39 36 -150 11 -204
41 -909 50 -1199 2 -62 1 -113 -4 -113 -4 0 -17 -16 -29 -36 -12 -19 -25 -32
-31 -29 -12 7 -72 -35 -122 -87 -20 -21 -42 -38 -48 -38 -6 0 -9 -3 -6 -8 2
-4 -16 -7 -40 -6 -24 1 -44 -2 -44 -7 0 -5 6 -9 13 -9 6 0 -1 -8 -18 -19 -16
-10 -31 -14 -33 -9 -7 17 -31 7 -35 -14 -4 -20 -4 -19 -6 5 0 15 -5 27 -11 27
-5 0 -10 8 -10 17 0 9 -9 26 -20 38 l-21 22 30 32 c22 24 28 38 26 63 -11 99
-20 135 -37 152 -11 10 -17 24 -14 31 2 7 0 43 -5 81 -5 38 -9 126 -9 195 1
101 -2 130 -15 142 -8 9 -12 23 -9 31 5 12 0 16 -20 16 -16 0 -29 -7 -33 -17
-4 -10 -12 -22 -19 -28 -14 -11 -36 -84 -29 -95 3 -4 -2 -13 -10 -20 -7 -6
-11 -18 -8 -26 3 -7 -1 -16 -9 -19 -9 -4 -12 -19 -10 -50 2 -25 -1 -51 -7 -59
-15 -18 -3 -252 15 -288 8 -15 14 -34 14 -42 0 -19 46 -87 53 -79 4 3 11 -5
16 -19 5 -14 16 -32 24 -40 21 -20 48 -88 36 -88 -5 0 -9 -8 -9 -17 0 -15 2
-16 10 -3 7 11 10 12 10 2 0 -7 -7 -20 -15 -28 -8 -9 -15 -24 -15 -34 0 -11
-12 -27 -27 -37 -16 -10 -30 -21 -33 -24 -3 -4 -23 -10 -44 -15 -36 -6 -38 -8
-21 -20 16 -12 16 -14 3 -14 -9 0 -19 -7 -22 -15 -7 -20 -63 -44 -87 -38 -11
3 -20 15 -20 27 -1 17 -2 17 -6 4 -8 -33 -21 -18 -28 31 -4 27 -2 66 5 89 7
28 8 62 1 104 -5 35 -9 74 -9 88 0 14 -2 57 -5 95 -3 39 -8 122 -11 185 -4 63
-9 149 -12 190 -4 41 -6 80 -6 85 1 6 3 91 4 189 3 132 7 181 17 184 9 3 8 7
-3 16 -11 8 -16 35 -19 96 -3 60 -9 94 -21 112 -14 22 -18 57 -22 190 -2 90
-9 181 -16 202 -10 31 -10 40 0 44 14 4 16 82 2 82 -6 0 -10 26 -9 61 1 38 5
56 10 47 6 -10 9 -8 9 8 0 11 -4 24 -9 30 -10 10 -15 165 -12 329 2 55 5 95 7
88 3 -7 12 -9 20 -6z m3460 -32 c-11 -8 -22 -12 -25 -9 -6 6 19 24 34 24 6 -1
1 -7 -9 -15z m1287 -316 c9 -17 17 -38 17 -48 0 -9 4 -21 10 -27 12 -12 30
-90 37 -159 3 -28 11 -54 19 -58 9 -5 14 -26 14 -58 0 -27 6 -58 13 -69 10
-17 9 -22 -2 -29 -10 -6 -12 -19 -7 -42 27 -132 26 -138 -17 -228 -27 -55 -42
-101 -44 -133 -1 -27 -7 -57 -13 -68 -5 -10 -10 -32 -10 -48 0 -16 -4 -42 -9
-58 -5 -16 -12 -42 -15 -57 -4 -17 -16 -31 -31 -37 -24 -9 -25 -12 -19 -67 8
-73 14 -80 14 -19 l0 48 37 -32 c33 -30 37 -31 43 -14 5 14 8 11 13 -15 10
-46 9 -88 -2 -109 -13 -25 -29 -91 -35 -145 -3 -26 -13 -61 -22 -78 -11 -23
-13 -34 -5 -42 6 -6 11 -21 11 -34 0 -13 6 -23 14 -23 19 0 32 -20 19 -29 -19
-12 -25 -95 -9 -116 20 -27 20 -35 -3 -35 -10 0 -21 -6 -24 -12 -7 -20 11 -58
28 -58 11 0 15 -10 15 -35 0 -19 -4 -35 -9 -35 -5 0 -12 -18 -16 -40 -4 -22
-11 -40 -16 -40 -6 0 -7 -6 -3 -12 6 -10 5 -10 -8 -1 -8 7 -18 10 -21 6 -4 -3
-7 1 -7 10 0 10 -7 17 -15 17 -8 0 -19 9 -26 21 -7 15 -18 20 -34 17 -14 -3
-22 -1 -19 6 4 11 -48 46 -69 46 -14 1 -76 50 -64 50 5 0 18 -5 29 -11 21 -11
21 -11 -1 20 -12 17 -29 35 -38 40 -13 7 -14 14 -4 42 11 31 4 48 -21 49 -14
0 -38 -32 -38 -51 0 -10 -4 -19 -10 -19 -5 0 -10 5 -10 11 0 7 -10 9 -25 5
-17 -4 -30 -1 -43 12 -10 10 -24 16 -30 14 -8 -2 -10 3 -5 14 4 12 3 15 -6 10
-7 -4 -19 2 -31 16 -20 24 -21 89 -5 423 2 61 7 166 10 235 3 69 7 170 10 225
3 55 7 147 10 205 5 131 18 352 20 365 1 6 3 22 3 37 2 22 14 34 63 63 33 19
62 35 64 35 2 0 1 -10 -3 -22 -4 -16 -2 -20 10 -16 8 4 19 -2 26 -13 13 -20
36 -16 61 9 13 13 16 12 22 -4 4 -11 8 -13 8 -6 1 7 6 10 11 7 6 -3 15 -3 21
1 8 4 4 13 -12 25 l-24 17 28 7 c15 4 34 5 42 1 9 -3 15 0 15 10 0 8 -4 13 -9
10 -5 -3 -11 1 -15 9 -3 9 0 15 9 15 9 0 15 10 15 25 0 15 11 36 25 49 14 13
25 28 25 33 0 16 21 31 38 26 10 -2 25 -18 35 -34z m-1403 -109 c0 -5 -2 -10
-4 -10 -3 0 -8 5 -11 10 -3 6 -1 10 4 10 6 0 11 -4 11 -10z m2747 -162 c-3 -8
-6 -5 -6 6 -1 11 2 17 5 13 3 -3 4 -12 1 -19z m-1963 -227 c-4 -81 -9 -138
-11 -128 -3 9 -11 17 -19 17 -11 0 -13 14 -10 63 4 52 3 57 -5 28 -6 -18 -11
-32 -12 -30 -1 2 -1 46 1 98 2 62 7 90 13 80 7 -11 9 -9 9 9 0 13 4 21 9 18 5
-3 12 2 16 12 15 33 18 -16 9 -167z m-3121 97 c18 -12 57 -45 87 -73 64 -59
164 -135 180 -135 5 0 10 -4 10 -10 0 -5 7 -10 15 -10 8 0 15 -4 15 -9 0 -5 9
-13 20 -16 11 -3 20 -13 20 -20 0 -8 11 -22 24 -30 29 -19 59 -77 64 -125 2
-19 10 -60 18 -90 8 -30 17 -103 21 -161 6 -114 -1 -139 -54 -182 -13 -10 -23
-24 -23 -32 0 -7 -8 -15 -17 -19 -10 -3 -31 -15 -48 -26 -16 -11 -36 -23 -42
-26 -7 -3 -13 -10 -13 -16 0 -13 -52 -57 -68 -58 -8 0 -10 -5 -6 -12 5 -7 2
-9 -9 -5 -11 4 -14 2 -10 -9 3 -10 0 -12 -10 -9 -9 4 -23 -5 -36 -22 -28 -38
-35 -45 -65 -68 -15 -11 -35 -28 -45 -38 -19 -18 -19 -18 -24 0 -3 10 -8 95
-12 188 -3 94 -8 208 -10 255 -2 47 -9 218 -15 380 -6 162 -13 319 -15 348 -5
59 2 63 48 30z m2931 -81 c12 -12 16 -26 35 -151 5 -32 14 -63 20 -69 17 -17
13 -30 -8 -24 -13 3 -24 -5 -36 -27 -22 -37 -37 -49 -46 -35 -3 6 -26 13 -50
15 -35 4 -40 3 -26 -6 24 -16 22 -33 -4 -25 -12 4 -27 8 -33 9 -19 3 -37 17
-31 25 2 5 -7 20 -22 35 -23 23 -24 26 -7 26 16 1 15 3 -6 16 -14 8 -17 13 -7
10 18 -6 23 4 8 20 -6 5 -5 16 3 26 12 17 15 16 42 -7 31 -27 54 -34 35 -11
-8 10 -9 16 -1 21 5 3 13 -1 16 -9 10 -25 32 -19 49 14 16 31 14 33 -20 31
-19 -2 -19 -1 2 16 14 11 23 31 25 51 1 21 10 40 22 48 25 17 24 17 40 1z
m123 -19 c-3 -8 -6 -5 -6 6 -1 11 2 17 5 13 3 -3 4 -12 1 -19z m-207 -48 c0
-5 -5 -10 -11 -10 -5 0 -7 5 -4 10 3 6 8 10 11 10 2 0 4 -4 4 -10z m250 -142
c0 -49 -5 -47 -14 5 -4 23 -3 37 4 37 5 0 10 -19 10 -42z m-29 -29 c-9 -22
-10 -22 -10 -3 -1 11 2 24 6 27 12 12 14 0 4 -24z m46 -36 c-3 -10 -5 -2 -5
17 0 19 2 27 5 18 2 -10 2 -26 0 -35z m-67 13 c0 -8 3 -22 7 -31 6 -16 4 -16
-15 0 -11 10 -18 24 -15 31 7 18 23 18 23 0z m-30 -32 c0 -8 -6 -14 -14 -14
-16 0 -29 27 -20 41 8 13 34 -9 34 -27z m60 -1 c-11 -17 -11 -17 -6 0 3 10 6
24 7 30 0 9 2 9 5 0 3 -7 0 -20 -6 -30z m-125 -22 c3 -5 1 -12 -5 -16 -5 -3
-10 1 -10 9 0 18 6 21 15 7z m155 -126 c0 -33 -4 -168 -9 -300 -6 -132 -11
-269 -11 -304 l0 -64 -36 6 c-37 6 -74 31 -74 51 0 6 -9 22 -20 36 -11 14 -20
32 -20 41 0 17 -33 33 -59 29 -11 -1 -10 2 3 15 21 22 20 32 -6 46 -20 11 -20
13 -5 24 9 7 17 16 17 20 0 5 7 16 15 25 17 19 26 144 15 195 -7 32 21 115 39
115 5 0 19 16 31 35 13 20 30 35 41 35 12 0 19 7 19 20 0 12 6 20 13 19 33 -4
37 1 32 44 -5 42 -5 42 5 7 6 -19 10 -62 10 -95z m-576 101 c-3 -8 3 -15 13
-18 16 -4 19 -17 20 -106 1 -56 7 -110 12 -121 14 -25 18 -138 5 -151 -6 -6
-18 0 -36 18 -97 101 -174 172 -187 172 -14 0 -14 2 -2 9 9 6 23 5 35 -1 18
-10 19 -9 9 3 -6 8 -11 18 -11 24 0 5 -5 11 -11 13 -6 2 -11 -3 -11 -12 0 -21
-9 -20 -27 2 -13 15 -14 15 -8 -8 5 -21 4 -22 -5 -7 -12 18 -5 41 10 32 5 -3
11 -1 15 4 3 6 13 7 21 4 11 -4 15 0 12 13 -2 13 6 21 28 29 17 5 29 15 27 21
-2 6 13 24 34 39 21 16 42 35 46 42 11 17 18 17 11 -1z m541 4 c3 -5 1 -10 -4
-10 -6 0 -11 5 -11 10 0 6 2 10 4 10 3 0 8 -4 11 -10z m-961 -151 c-3 -5 -10
-7 -15 -4 -5 3 -6 -1 -3 -10 4 -9 3 -15 -2 -14 -27 5 -36 -1 -25 -15 10 -12 8
-17 -8 -26 -12 -6 -21 -15 -21 -21 0 -18 -28 -39 -44 -33 -9 3 -27 -1 -40 -9
-13 -9 -33 -13 -45 -10 -23 6 -29 23 -8 23 7 0 36 23 64 50 28 28 56 50 61 50
6 0 12 6 15 14 3 8 18 16 34 18 33 4 46 0 37 -13z m163 -58 c17 -11 78 -56
135 -101 57 -44 159 -124 228 -178 68 -53 170 -133 226 -177 228 -179 492
-384 587 -458 56 -43 111 -86 122 -95 11 -9 59 -46 105 -81 236 -179 307 -241
305 -264 -1 -12 -3 -29 -4 -37 -1 -11 -3 -12 -9 -3 -7 10 -14 10 -35 0 -15 -6
-27 -16 -27 -21 0 -6 -6 -1 -14 9 -12 17 -16 17 -31 5 -27 -22 -44 -64 -56
-139 -7 -39 -15 -68 -19 -66 -13 8 -19 -20 -26 -115 -7 -87 6 -170 26 -170 4
0 5 -11 2 -25 -2 -14 1 -32 8 -40 6 -8 9 -19 5 -24 -3 -6 0 -8 9 -5 11 4 13 0
9 -14 -3 -13 4 -26 19 -38 13 -11 33 -35 44 -54 10 -19 22 -37 25 -40 13 -10
21 -70 10 -70 -6 0 -11 5 -11 10 0 6 -7 10 -16 10 -8 0 -12 5 -9 10 4 6 -7 10
-24 10 -17 0 -31 4 -31 10 0 5 -18 19 -40 30 -33 17 -166 106 -205 137 -6 4
-63 48 -128 96 -68 52 -115 93 -111 99 4 7 2 8 -4 4 -12 -7 -13 -7 -77 46 -22
19 -53 42 -68 52 -16 9 -36 24 -45 31 -9 8 -34 27 -54 42 -117 88 -196 151
-220 175 -15 16 -31 28 -36 28 -5 0 -66 56 -136 125 -70 69 -131 125 -137 125
-6 0 -7 5 -3 12 5 8 2 9 -10 5 -9 -4 -15 -3 -12 2 3 5 -11 21 -32 37 -20 15
-38 32 -40 36 -2 4 -8 8 -14 8 -12 0 -68 61 -68 74 0 4 -7 6 -15 2 -8 -3 -15
-2 -15 2 0 10 -116 102 -129 102 -6 0 -11 5 -11 11 0 5 -4 7 -10 4 -5 -3 -10
-2 -10 4 0 5 -19 19 -42 31 -51 25 -92 59 -101 83 -4 10 -12 17 -19 16 -21 -3
-48 12 -42 23 4 6 -2 8 -15 3 -16 -5 -20 -3 -15 9 3 9 13 16 22 16 12 0 13 3
5 11 -8 8 -18 6 -37 -6 -24 -16 -26 -16 -20 -1 4 9 3 16 -2 14 -5 -1 -19 4
-31 12 -17 11 -19 17 -11 27 8 10 7 12 -6 7 -9 -3 -16 -10 -16 -15 0 -20 -30
5 -41 34 -9 24 -13 28 -16 15 -3 -10 -8 -18 -13 -18 -10 0 -25 40 -21 59 1 7
-2 10 -7 7 -13 -8 -59 10 -80 31 -13 13 -14 17 -3 21 10 3 11 6 1 12 -7 4 -9
13 -6 19 10 16 36 13 43 -5 3 -8 17 -20 32 -25 21 -8 23 -12 11 -20 -11 -8
-10 -9 8 -4 13 4 22 2 22 -4 0 -6 7 -11 15 -11 8 0 26 -10 40 -22 19 -16 22
-24 14 -35 -9 -10 -6 -13 15 -13 31 0 66 -16 66 -30 0 -6 -8 -10 -17 -10 -16
0 -16 2 -3 11 12 9 12 10 1 7 -23 -6 -24 -25 -2 -31 11 -3 22 0 24 6 4 12 16
7 62 -22 17 -11 39 -20 49 -20 11 -1 33 -12 50 -25 17 -13 49 -33 71 -45 22
-11 51 -30 65 -40 14 -11 39 -22 56 -26 l31 -6 2 64 c1 50 -2 66 -14 70 -8 4
-15 14 -15 22 0 10 5 13 13 9 6 -4 5 1 -4 12 -22 26 -33 62 -30 103 2 38 -17
70 -30 49 -6 -9 -10 -8 -15 6 -4 10 -2 21 3 25 5 3 10 21 10 39 0 19 6 38 13
42 10 6 14 30 14 79 -1 67 -3 72 -40 116 -21 26 -46 57 -54 71 -8 13 -20 24
-26 24 -7 0 -14 8 -18 18 -3 9 -9 23 -12 31 -5 10 -1 11 17 6 16 -4 20 -3 11
3 -11 7 -8 14 14 31 33 26 60 27 101 2z m-292 -81 c-3 -5 -16 -15 -28 -21 -22
-12 -22 -12 -3 10 19 21 43 30 31 11z m-105 -4 c0 -3 -4 -8 -10 -11 -5 -3 -10
-1 -10 4 0 6 5 11 10 11 6 0 10 -2 10 -4z m35 -26 c3 -5 -3 -10 -13 -10 -11 0
-23 -7 -26 -16 -4 -9 -9 -14 -13 -10 -7 6 25 46 38 46 4 0 11 -4 14 -10z
m1935 1 c0 -6 -4 -12 -10 -16 -5 -3 -7 -12 -3 -20 6 -17 -12 -20 -22 -4 -4 6
-13 8 -21 5 -8 -3 -14 -1 -14 4 0 6 9 10 19 10 10 0 21 7 25 15 6 16 26 21 26
6z m107 -343 c-3 -7 -5 -2 -5 12 0 14 2 19 5 13 2 -7 2 -19 0 -25z m-2477
-866 c0 -389 -2 -733 -6 -764 -6 -55 -7 -57 -38 -56 -37 1 -55 13 -67 47 -7
17 -13 21 -21 13 -6 -6 -17 -8 -24 -5 -8 3 -14 -1 -14 -10 0 -14 -3 -14 -72
-4 -49 8 -67 19 -77 48 -5 16 -16 28 -23 27 -8 -2 -14 8 -16 24 -4 38 -27 54
-47 35 -8 -9 -15 -19 -15 -24 0 -17 -71 -53 -105 -53 -44 0 -46 -17 -2 -23 20
-2 10 -4 -25 -5 -46 -2 -59 -6 -68 -22 -17 -32 -120 -76 -120 -51 0 5 -9 13
-20 16 -11 3 -20 15 -20 26 0 10 -4 19 -10 19 -5 0 -10 13 -10 29 0 16 -8 37
-17 47 -10 10 -16 28 -14 43 3 22 1 23 -13 12 -9 -7 -16 -26 -16 -42 0 -15 -3
-30 -7 -32 -5 -3 -9 33 -11 80 -2 82 -2 84 19 78 18 -6 20 -3 17 22 -2 21 -8
27 -22 25 -17 -3 -18 3 -11 100 4 57 11 105 14 108 19 13 19 40 1 50 -11 6
-20 20 -20 30 0 22 10 26 26 10 8 -8 15 -6 24 5 8 10 9 15 1 15 -6 0 -11 17
-10 43 0 23 3 36 6 30 9 -23 33 13 33 49 0 18 6 42 14 53 7 11 15 23 16 27 1
4 4 17 7 28 3 11 11 20 18 20 6 0 19 8 29 19 11 12 25 17 44 13 35 -6 50 -26
44 -57 -3 -18 0 -25 12 -25 9 0 16 -8 16 -21 0 -11 -4 -18 -8 -15 -4 2 -14 1
-21 -4 -20 -12 -2 -33 25 -27 15 2 24 -1 26 -11 2 -12 8 -11 28 6 20 16 24 27
21 64 -1 31 3 48 13 57 9 8 16 29 16 51 0 21 7 43 15 50 8 7 15 21 15 31 0 11
6 19 14 19 12 0 23 43 29 114 1 10 14 32 30 49 15 16 26 36 23 44 -3 7 -1 13
5 13 5 0 20 9 32 20 12 12 23 16 25 10 6 -18 22 -11 22 10 0 14 5 18 17 13 11
-4 14 -3 9 5 -9 15 27 50 59 58 14 3 23 10 20 14 -3 5 7 18 22 29 16 11 39 32
53 46 33 33 93 74 102 69 3 -2 7 -322 8 -712z m-2433 661 c-3 -10 -5 -4 -5 12
0 17 2 24 5 18 2 -7 2 -21 0 -30z m2700 -59 c19 -19 37 -34 39 -34 3 0 15 -9
27 -21 26 -24 178 -111 297 -170 121 -59 131 -65 122 -74 -4 -4 2 -5 13 -1 11
4 16 4 13 0 -4 -3 16 -25 45 -47 29 -22 62 -52 74 -66 13 -14 23 -22 23 -18 0
5 15 -5 33 -22 17 -17 39 -38 48 -46 9 -8 21 -15 27 -15 7 0 12 -7 12 -15 0
-9 7 -18 15 -21 8 -4 23 -22 32 -42 9 -20 31 -50 48 -68 69 -75 76 -84 70 -94
-3 -5 1 -10 9 -10 9 0 16 -4 16 -10 0 -5 -4 -10 -10 -10 -10 0 -32 -69 -25
-79 2 -4 6 -34 9 -67 6 -67 14 -94 27 -94 5 0 9 -18 9 -39 0 -22 7 -46 15 -55
8 -8 15 -19 15 -25 0 -6 16 -34 35 -61 19 -27 35 -53 35 -56 0 -3 8 -18 19
-32 10 -15 22 -38 26 -52 7 -22 6 -23 -8 -12 -13 11 -16 10 -21 -6 -5 -15 -14
-19 -41 -16 -19 1 -35 -1 -35 -6 0 -4 -10 -14 -22 -22 -25 -16 -88 -34 -76
-22 5 4 0 13 -10 19 -17 12 -56 12 -119 0 -21 -4 -40 -2 -49 6 -10 8 -18 9
-27 0 -8 -6 -16 -9 -18 -7 -3 3 -31 6 -63 7 -37 2 -60 7 -63 16 -3 7 -10 13
-17 13 -16 0 -67 60 -60 71 3 5 -6 13 -19 18 -17 7 -28 22 -34 48 -8 31 -12
35 -18 19 -5 -10 -4 -21 3 -25 7 -4 5 -24 -8 -61 -15 -43 -23 -55 -39 -54 -12
0 -21 -4 -21 -9 0 -5 -7 -4 -15 3 -8 6 -19 9 -25 5 -5 -3 -16 -3 -22 2 -7 4
-21 9 -30 10 -10 2 -21 4 -25 5 -4 1 -32 -4 -61 -10 -29 -7 -81 -12 -115 -12
-58 0 -63 -2 -79 -30 -10 -18 -25 -30 -38 -30 -13 0 -19 -4 -14 -11 4 -7 2 -9
-7 -5 -8 3 -21 9 -31 12 -9 3 -19 16 -22 27 -8 29 -7 1446 0 1474 6 22 6 22
51 -8 25 -18 61 -47 80 -65z m2600 -56 c-3 -8 -6 -5 -6 6 -1 11 2 17 5 13 3
-3 4 -12 1 -19z m-527 -178 c0 -5 -2 -10 -4 -10 -3 0 -8 5 -11 10 -3 6 -1 10
4 10 6 0 11 -4 11 -10z m-2787 -41 c-9 -9 -12 -7 -10 9 1 14 5 18 11 12 7 -7
6 -14 -1 -21z m-303 -233 c0 -3 -4 -8 -10 -11 -5 -3 -10 -1 -10 4 0 6 5 11 10
11 6 0 10 -2 10 -4z m-288 -173 c3 -10 3 -47 2 -83 -6 -158 -14 -303 -19 -342
-13 -98 -28 -169 -36 -174 -5 -3 -9 -16 -9 -29 0 -26 -21 -46 -28 -27 -7 21
-19 13 -25 -15 -4 -22 -16 -32 -51 -46 -24 -10 -51 -17 -59 -15 -8 2 -26 -9
-40 -24 -26 -28 -47 -36 -47 -18 0 6 -11 10 -24 10 -37 0 -43 31 -52 297 l-6
191 31 31 c18 18 51 44 74 58 23 15 54 36 68 48 86 68 204 155 210 155 4 0 9
-8 11 -17z m4145 -45 c-3 -8 -6 -5 -6 6 -1 11 2 17 5 13 3 -3 4 -12 1 -19z
m45 -28 c-2 -16 -6 -30 -8 -30 -2 0 -4 14 -4 30 0 17 4 30 8 30 5 0 7 -13 4
-30z m-52 -16 c0 -8 -4 -14 -9 -14 -11 0 -22 26 -14 34 9 9 23 -3 23 -20z
m-3973 -6 c-3 -8 -6 -5 -6 6 -1 11 2 17 5 13 3 -3 4 -12 1 -19z m3605 -22 c11
-15 10 -26 -2 -26 -5 0 -10 7 -10 16 0 8 -4 13 -9 9 -5 -3 -12 -2 -15 3 -8 13
28 11 36 -2z m386 -47 c-10 -16 -13 -27 -7 -23 7 4 9 -6 7 -26 -2 -18 -10 -36
-18 -41 -54 -27 -86 -37 -94 -29 -12 12 11 40 33 40 13 1 13 3 -3 15 -11 8
-18 16 -15 18 2 1 17 9 33 17 16 8 35 30 43 49 11 26 17 31 26 22 9 -9 8 -19
-5 -42z m-178 11 c0 -5 -4 -10 -10 -10 -5 0 -10 5 -10 10 0 6 5 10 10 10 6 0
10 -4 10 -10z m-220 -28 c0 -5 -7 -9 -15 -9 -8 0 -12 4 -9 9 3 4 9 8 15 8 5 0
9 -4 9 -8z m-1238 -112 c7 -11 18 -20 24 -20 6 0 17 -7 24 -15 7 -8 15 -13 19
-10 10 6 3 -159 -8 -186 -7 -16 -10 -18 -10 -8 -1 9 -12 20 -26 23 -16 4 -25
13 -25 26 0 11 -6 20 -14 20 -19 0 -28 47 -20 106 3 27 6 57 6 67 -1 23 15 22
30 -3z m1514 -28 c-6 -10 -56 -23 -56 -14 0 2 10 13 22 24 21 18 47 11 34 -10z
m-62 -41 c3 -5 -5 -8 -18 -7 -13 0 -22 4 -19 9 6 10 31 9 37 -2z m-4497 -38
c1 -21 5 -91 9 -155 6 -104 5 -118 -10 -124 -9 -3 -16 -14 -16 -23 0 -14 -2
-14 -10 -1 -8 13 -10 12 -10 -3 0 -17 -2 -17 -22 -3 -14 10 -44 16 -83 16 -69
0 -153 26 -157 49 -2 9 -2 28 0 43 3 19 8 25 20 21 9 -4 13 -2 9 4 -12 18 167
167 238 199 17 7 30 13 31 14 0 0 1 -17 1 -37z m3326 -105 c35 -28 38 -36 34
-65 -6 -33 -40 -72 -64 -73 -6 0 -15 15 -19 33 -6 28 -8 29 -15 12 l-8 -20 -1
20 c-3 36 2 129 6 137 5 8 7 7 67 -44z m917 -22 c0 -39 -13 -66 -26 -54 -7 8
8 98 17 98 5 0 9 -20 9 -44z m-3600 -2 c0 -8 -5 -12 -10 -9 -6 4 -8 11 -5 16
9 14 15 11 15 -7z m-950 -120 c0 -8 -4 -12 -10 -9 -5 3 -10 10 -10 16 0 5 5 9
10 9 6 0 10 -7 10 -16z m3650 12 c0 -3 -4 -8 -10 -11 -5 -3 -10 -1 -10 4 0 6
5 11 10 11 6 0 10 -2 10 -4z m926 -89 c2 -7 -2 -26 -10 -42 l-15 -29 -9 25
c-6 14 -6 31 0 42 10 20 27 22 34 4z m-4919 -153 c-3 -3 -12 -4 -19 -1 -8 3
-5 6 6 6 11 1 17 -2 13 -5z m-742 -464 c3 -5 1 -10 -4 -10 -6 0 -11 5 -11 10
0 6 2 10 4 10 3 0 8 -4 11 -10z m139 -28 c2 -4 1 -14 -3 -21 -6 -9 -11 -10
-15 -2 -4 6 -1 11 6 12 7 1 2 5 -12 9 -23 7 -23 8 -3 9 12 1 24 -3 27 -7z"/>
<path d="M7280 6088 c0 -12 7 -18 23 -17 15 0 17 2 7 6 -8 3 -18 11 -22 17 -5
7 -8 4 -8 -6z"/>
<path d="M7250 6018 c0 -15 8 -18 47 -18 45 0 46 0 29 19 -24 26 -76 25 -76
-1z"/>
<path d="M7240 5948 c0 -16 5 -28 10 -28 6 0 10 -9 10 -20 0 -11 5 -20 10 -20
6 0 10 -9 10 -20 0 -11 8 -28 18 -39 27 -29 52 -64 52 -73 0 -4 6 -8 14 -8 23
0 27 30 9 62 -14 23 -15 32 -5 35 16 6 15 21 -3 39 -18 19 -20 45 -2 40 6 -1
9 -1 5 1 -5 3 -8 12 -8 20 0 13 -10 15 -50 11 -40 -4 -53 -2 -60 11 -7 13 -9
10 -10 -11z"/>
<path d="M10695 5375 c-19 -14 -18 -15 13 -13 18 1 31 7 29 12 -5 16 -22 17
-42 1z"/>
<path d="M10693 5240 c0 -25 2 -35 4 -22 2 12 2 32 0 45 -2 12 -4 2 -4 -23z"/>
<path d="M10640 5130 c0 -5 9 -10 21 -10 11 0 17 5 14 10 -3 6 -13 10 -21 10
-8 0 -14 -4 -14 -10z"/>
<path d="M8602 5078 c-7 -7 -12 -19 -12 -27 0 -9 -12 -27 -25 -40 -14 -13 -25
-29 -25 -37 0 -8 -6 -14 -13 -14 -14 0 -37 -41 -36 -63 0 -18 100 -97 121 -97
10 0 18 -7 18 -15 0 -8 9 -15 20 -15 19 0 21 6 19 58 -1 72 6 137 21 172 14
35 0 67 -36 80 -32 13 -38 12 -52 -2z"/>
<path d="M10567 4949 c4 -15 8 -17 14 -8 8 14 3 29 -11 29 -4 0 -6 -9 -3 -21z"/>
<path d="M8800 4890 c0 -5 5 -10 11 -10 5 0 7 5 4 10 -3 6 -8 10 -11 10 -2 0
-4 -4 -4 -10z"/>
<path d="M8801 4854 c0 -11 3 -14 6 -6 3 7 2 16 -1 19 -3 4 -6 -2 -5 -13z"/>
<path d="M9593 4805 c0 -8 4 -12 9 -9 5 3 6 10 3 15 -9 13 -12 11 -12 -6z"/>
<path d="M8800 4802 c0 -6 -7 -17 -15 -25 -12 -13 -12 -17 -1 -26 12 -10 16
-6 21 19 4 17 4 34 1 37 -3 4 -6 1 -6 -5z"/>
<path d="M8770 4710 c-23 -8 -22 -8 8 -7 17 1 32 5 32 9 0 9 -6 9 -40 -2z"/>
<path d="M8416 3733 c-26 -13 -50 -33 -53 -43 -3 -10 -13 -20 -24 -23 -14 -4
-19 -15 -20 -39 -2 -62 3 -103 12 -106 5 -2 7 -7 4 -12 -2 -4 2 -31 11 -59 17
-58 42 -78 75 -61 16 9 25 8 40 -6 18 -16 19 -16 19 9 0 19 6 26 23 29 18 2
23 10 25 47 2 24 -2 49 -7 54 -6 6 -11 24 -11 39 0 15 -4 28 -9 28 -4 0 -6 11
-3 25 2 14 1 41 -3 61 -5 29 -10 35 -26 31 -10 -3 -22 -1 -25 4 -3 5 4 9 15 9
14 0 21 6 21 20 0 24 -2 24 -64 -7z"/>
<path d="M8465 3341 c-3 -11 1 -33 9 -48 14 -28 14 -28 9 17 -7 54 -9 58 -18
31z"/>
<path d="M7202 2350 c0 -19 2 -27 5 -17 2 9 2 25 0 35 -3 9 -5 1 -5 -18z"/>
<path d="M9320 5825 c0 -8 4 -15 9 -15 5 0 11 7 15 15 3 9 0 15 -9 15 -8 0
-15 -7 -15 -15z"/>
<path d="M9320 5770 c0 -5 5 -10 11 -10 5 0 7 5 4 10 -3 6 -8 10 -11 10 -2 0
-4 -4 -4 -10z"/>
<path d="M7555 5130 c-3 -5 -1 -10 6 -10 8 0 8 -4 -2 -16 -10 -13 -10 -17 2
-25 26 -16 49 -10 49 12 0 32 -41 61 -55 39z"/>
<path d="M7570 5020 c0 -11 5 -20 10 -20 6 0 10 9 10 20 0 11 -4 20 -10 20 -5
0 -10 -9 -10 -20z"/>
<path d="M7310 4810 c-13 -8 -13 -10 2 -10 9 0 18 -5 20 -12 5 -15 28 -1 28
18 0 16 -28 18 -50 4z"/>
<path d="M7330 4709 c0 -20 4 -29 9 -23 15 15 17 47 4 51 -9 3 -13 -6 -13 -28z"/>
<path d="M7302 4695 c0 -16 2 -22 5 -12 2 9 2 23 0 30 -3 6 -5 -1 -5 -18z"/>
<path d="M7545 4598 c-32 -14 -45 -71 -32 -137 6 -31 16 -60 22 -64 7 -6 6
-10 -2 -14 -7 -2 -13 -20 -13 -39 0 -28 -4 -34 -22 -35 -22 0 -22 -1 -3 -8 24
-9 44 12 45 46 0 12 9 27 20 33 18 9 20 20 19 93 -2 113 -8 137 -34 125z m15
-133 c0 -8 -4 -15 -10 -15 -5 0 -10 7 -10 15 0 8 5 15 10 15 6 0 10 -7 10 -15z"/>
<path d="M7462 4421 c-15 -41 -16 -101 -2 -101 6 0 10 18 10 40 0 22 5 40 10
40 6 0 10 -18 10 -40 0 -22 5 -40 10 -40 6 0 10 18 10 40 0 22 -4 40 -9 40 -5
0 -13 12 -18 27 l-9 27 -12 -33z"/>
<path d="M11463 4200 c0 -25 2 -35 4 -22 2 12 2 32 0 45 -2 12 -4 2 -4 -23z"/>
<path d="M11695 4062 c-10 -7 -35 -48 -35 -57 0 -3 7 -5 15 -5 8 0 15 6 15 14
0 8 9 18 21 21 11 4 18 12 16 18 -4 14 -19 19 -32 9z"/>
<path d="M11595 3960 c-4 -6 -3 -16 3 -22 6 -6 12 -6 17 2 4 6 3 16 -3 22 -6
6 -12 6 -17 -2z"/>
<path d="M11600 3750 c0 -18 4 -29 10 -25 6 3 10 15 10 25 0 10 -4 22 -10 25
-6 4 -10 -7 -10 -25z"/>
<path d="M11511 3664 c0 -11 3 -14 6 -6 3 7 2 16 -1 19 -3 4 -6 -2 -5 -13z"/>
<path d="M11520 3625 c0 -8 5 -15 10 -15 6 0 10 7 10 15 0 8 -4 15 -10 15 -5
0 -10 -7 -10 -15z"/>
<path d="M10790 4681 c0 -5 5 -13 10 -16 6 -3 10 -2 10 4 0 5 -4 13 -10 16 -5
3 -10 2 -10 -4z"/>
<path d="M9890 3746 c0 -2 7 -6 15 -10 8 -3 15 -1 15 4 0 6 -7 10 -15 10 -8 0
-15 -2 -15 -4z"/>
<path d="M10500 3420 c0 -5 5 -10 10 -10 6 0 10 5 10 10 0 6 -4 10 -10 10 -5
0 -10 -4 -10 -10z"/>
<path d="M10597 3400 c6 -24 -25 -40 -38 -19 -7 11 -9 11 -9 1 0 -8 9 -16 20
-19 11 -3 20 -11 20 -18 0 -22 127 -145 150 -145 11 0 20 -5 20 -11 0 -6 9 -8
20 -4 16 5 20 2 20 -19 0 -22 5 -26 29 -26 17 0 33 5 36 10 3 6 2 10 -4 10 -5
0 -12 14 -16 31 -5 24 -11 30 -26 26 -16 -4 -19 1 -20 31 -1 32 -2 34 -8 12
-10 -35 -61 -37 -61 -3 0 13 -11 29 -26 39 -14 10 -21 20 -16 23 4 3 8 16 8
29 0 18 -7 24 -38 29 -21 3 -38 9 -38 14 0 5 5 9 10 9 6 0 10 5 10 10 0 6 -11
10 -24 10 -19 0 -23 -4 -19 -20z"/>
<path d="M10865 3110 c3 -5 8 -10 11 -10 2 0 4 5 4 10 0 6 -5 10 -11 10 -5 0
-7 -4 -4 -10z"/>
<path d="M8818 3013 c12 -2 32 -2 45 0 12 2 2 4 -23 4 -25 0 -35 -2 -22 -4z"/>
<path d="M8940 2250 c0 -5 5 -10 10 -10 6 0 10 5 10 10 0 6 -4 10 -10 10 -5 0
-10 -4 -10 -10z"/>
<path d="M9978 2243 c7 -3 16 -2 19 1 4 3 -2 6 -13 5 -11 0 -14 -3 -6 -6z"/>
<path d="M9036 7730 c-11 -3 -15 -9 -10 -12 34 -20 465 -89 539 -86 17 1 66
-4 110 -10 44 -7 119 -14 167 -16 48 -3 92 -8 98 -11 6 -4 86 -8 178 -10 92
-2 199 -9 237 -15 122 -21 174 -22 208 -5 21 10 34 12 41 5 5 -5 30 -10 56
-10 35 0 55 7 94 35 38 27 45 36 32 41 -9 3 -22 2 -29 -4 -7 -6 -24 -13 -37
-16 -14 -2 -34 -7 -45 -11 -15 -5 -16 -4 -6 3 19 14 5 32 -26 32 -20 0 -24 4
-20 20 3 11 0 20 -6 20 -6 0 -4 6 5 13 29 23 28 43 -3 45 -19 2 -29 -2 -29
-11 0 -17 -161 -30 -283 -22 -45 3 -199 7 -342 9 -143 2 -314 6 -380 9 -230
10 -530 14 -549 7z"/>
<path d="M11781 7643 c-45 -3 -68 -9 -78 -21 -10 -13 -14 -14 -21 -4 -5 7 -16
10 -26 6 -15 -6 -15 -7 1 -20 17 -13 17 -13 0 -14 -14 0 -17 -5 -12 -20 4 -11
2 -20 -4 -20 -6 0 -11 7 -11 15 0 8 -7 15 -15 15 -18 0 -19 12 -4 27 8 8 -2 9
-36 5 -34 -3 -50 -1 -57 9 -8 11 -9 10 -4 -3 4 -14 0 -18 -16 -18 -17 0 -19
-3 -10 -12 7 -7 12 -35 12 -64 0 -55 -15 -79 -44 -68 -10 4 -16 1 -16 -9 0 -9
-16 -18 -42 -24 l-43 -10 43 -8 c51 -9 54 -22 7 -31 -19 -3 -32 -10 -29 -15 5
-9 -18 -39 -30 -39 -3 0 -6 9 -6 20 0 11 -5 20 -11 20 -6 0 -9 -7 -6 -15 4 -8
-4 -44 -17 -81 -13 -36 -26 -60 -29 -53 -4 10 -6 10 -6 2 -1 -7 -7 -13 -14
-13 -8 0 -19 -10 -26 -23 -12 -23 -55 -50 -101 -63 -21 -6 -23 -5 -12 8 10 13
9 15 -13 10 -16 -3 -25 -11 -25 -23 0 -31 40 -40 133 -28 132 17 147 19 147
28 0 5 19 29 41 55 30 34 39 50 31 58 -14 14 30 51 51 42 19 -7 61 29 90 76
12 19 34 47 49 62 16 15 33 38 39 50 47 105 88 127 184 102 20 -5 20 -5 1 10
-10 9 -23 13 -27 10 -5 -3 -9 -1 -9 5 0 17 22 24 32 10 7 -11 11 -11 14 -2 7
17 33 -7 27 -24 -3 -7 2 -13 11 -13 9 0 16 6 16 13 0 9 2 9 8 -1 6 -9 16 -10
33 -4 28 10 40 10 56 -1 6 -4 63 -9 126 -12 94 -5 116 -3 120 9 3 7 -5 24 -18
36 -19 18 -27 20 -45 10 -12 -6 -24 -9 -28 -6 -3 3 0 6 8 6 9 0 10 3 1 14 -7
8 -33 17 -59 20 -70 9 -258 14 -331 9z m-191 -58 c15 -18 6 -45 -14 -45 -9 0
-20 -9 -26 -20 -16 -30 -37 -25 -38 11 -1 52 50 88 78 54z m403 8 c-7 -2 -19
-2 -25 0 -7 3 -2 5 12 5 14 0 19 -2 13 -5z"/>
<path d="M9840 7569 c0 -5 11 -9 25 -9 14 0 25 2 25 4 0 2 -11 6 -25 8 -14 3
-25 1 -25 -3z"/>
<path d="M9655 7550 c3 -5 19 -10 36 -10 16 0 29 5 29 10 0 6 -16 10 -36 10
-21 0 -33 -4 -29 -10z"/>
<path d="M9760 7550 c0 -5 -7 -10 -15 -10 -8 0 -15 -4 -15 -10 0 -16 19 -12
42 10 19 17 19 20 5 20 -9 0 -17 -4 -17 -10z"/>
<path d="M10010 7541 c0 -6 5 -13 10 -16 6 -3 10 1 10 9 0 9 -4 16 -10 16 -5
0 -10 -4 -10 -9z"/>
<path d="M9953 7523 c9 -2 25 -2 35 0 9 3 1 5 -18 5 -19 0 -27 -2 -17 -5z"/>
<path d="M12786 7504 c-9 -8 -21 -25 -27 -37 -8 -17 -5 -16 13 6 22 25 29 27
106 27 l83 0 33 -72 c18 -39 35 -67 39 -62 3 6 -7 36 -23 67 -16 31 -26 57
-22 57 3 0 -3 7 -14 15 -28 21 -167 21 -188 -1z"/>
<path d="M5736 7410 c7 -158 22 -265 48 -349 14 -46 30 -89 36 -96 5 -6 8 -14
5 -16 -2 -3 6 -37 19 -77 19 -60 21 -82 15 -130 -19 -130 -28 -221 -31 -282
-2 -65 9 -247 16 -259 2 -3 7 -53 11 -111 3 -58 8 -123 10 -145 2 -22 6 -78 9
-125 9 -118 34 -378 48 -482 9 -70 14 -88 27 -87 10 0 12 2 3 6 -6 2 -10 8 -8
11 2 4 -2 54 -10 112 -8 58 -17 147 -19 199 -3 52 -7 102 -10 112 -3 9 -8 68
-11 130 -9 199 -15 263 -24 293 -13 37 -12 55 0 36 13 -21 12 -9 -3 36 -13 35
-29 169 -29 234 0 46 21 200 29 212 4 7 8 27 9 43 0 17 2 61 4 100 2 45 -1 70
-9 73 -6 2 -11 13 -11 25 0 12 -7 42 -16 66 -8 24 -13 50 -10 57 3 7 0 16 -5
20 -6 3 -8 17 -4 31 4 17 2 23 -6 18 -8 -5 -9 -1 -4 14 4 13 2 21 -5 21 -6 0
-8 11 -4 28 4 21 3 24 -6 12 -9 -12 -10 -8 -5 18 4 17 3 32 -2 32 -5 0 -9 8
-10 18 -1 9 -6 35 -12 57 -6 22 -14 64 -17 94 -11 110 -23 141 -18 51z"/>
<path d="M11310 7450 c0 -5 5 -10 10 -10 6 0 10 5 10 10 0 6 -4 10 -10 10 -5
0 -10 -4 -10 -10z"/>
<path d="M12723 7405 c-27 -41 -27 -42 -7 -80 8 -16 13 -38 11 -47 -3 -10 -1
-16 4 -12 5 3 9 -6 9 -20 0 -16 6 -26 15 -26 8 0 14 -6 13 -12 -4 -19 50 -22
77 -4 13 9 40 16 60 16 29 0 39 6 55 33 26 43 25 57 -1 23 -21 -26 -25 -27
-82 -21 -56 7 -64 11 -104 54 -48 51 -50 59 -28 101 21 41 5 37 -22 -5z"/>
<path d="M6059 7370 c-3 -8 10 -41 28 -72 19 -32 31 -63 27 -70 -4 -6 -3 -8 4
-4 6 3 15 0 19 -9 13 -23 73 -38 79 -20 3 8 25 17 48 20 39 6 45 11 65 53 l23
46 -33 -32 c-29 -29 -39 -32 -91 -32 -55 0 -59 2 -106 48 -28 26 -51 56 -54
67 -3 15 -5 16 -9 5z"/>
<path d="M6360 7371 c0 -6 4 -13 10 -16 6 -3 7 1 4 9 -7 18 -14 21 -14 7z"/>
<path d="M11240 7312 c0 -10 9 -25 20 -35 19 -16 20 -16 20 18 0 28 -4 35 -20
35 -12 0 -20 -7 -20 -18z"/>
<path d="M10278 7276 c-16 -12 -11 -14 43 -20 85 -8 131 -8 125 3 -3 4 -29 11
-58 14 -29 4 -62 9 -73 12 -11 3 -28 -1 -37 -9z"/>
<path d="M10480 7271 c0 -13 27 -21 45 -15 25 10 17 24 -15 24 -16 0 -30 -4
-30 -9z"/>
<path d="M11871 7191 c-30 -9 -56 -22 -59 -29 -2 -6 -10 -12 -18 -12 -8 0 -14
-7 -14 -15 0 -9 -8 -14 -21 -12 -12 1 -24 -3 -26 -10 -2 -6 4 -12 14 -12 10 0
60 -1 110 -1 94 -2 164 13 160 32 -3 15 56 34 61 20 4 -14 68 -16 76 -3 3 5
-12 11 -34 15 -36 6 -45 14 -41 39 2 14 -154 5 -208 -12z"/>
<path d="M10712 7138 c-8 -10 3 -13 53 -13 52 0 60 2 46 12 -21 16 -86 16 -99
1z"/>
<path d="M10860 7130 c-11 -7 -7 -10 18 -10 20 0 31 4 27 10 -8 13 -26 13 -45
0z"/>
<path d="M10488 7123 c7 -3 16 -2 19 1 4 3 -2 6 -13 5 -11 0 -14 -3 -6 -6z"/>
<path d="M10683 7053 c-66 -6 -51 -23 20 -23 41 0 57 3 48 9 -11 7 -6 11 20
14 32 4 31 4 -6 4 -22 0 -59 -2 -82 -4z"/>
<path d="M10778 7033 c7 -3 16 -2 19 1 4 3 -2 6 -13 5 -11 0 -14 -3 -6 -6z"/>
<path d="M10828 7033 c6 -2 18 -2 25 0 6 3 1 5 -13 5 -14 0 -19 -2 -12 -5z"/>
<path d="M10968 7033 c6 -2 18 -2 25 0 6 3 1 5 -13 5 -14 0 -19 -2 -12 -5z"/>
<path d="M10648 7013 c6 -2 18 -2 25 0 6 3 1 5 -13 5 -14 0 -19 -2 -12 -5z"/>
<path d="M13171 6094 c0 -11 3 -14 6 -6 3 7 2 16 -1 19 -3 4 -6 -2 -5 -13z"/>
<path d="M13158 6054 c-5 -4 -8 -16 -8 -28 0 -14 3 -17 11 -9 6 6 9 19 7 28
-1 9 -6 13 -10 9z"/>
<path d="M6260 5690 c0 -5 5 -10 10 -10 6 0 10 5 10 10 0 6 -4 10 -10 10 -5 0
-10 -4 -10 -10z"/>
<path d="M6261 5564 c0 -11 3 -14 6 -6 3 7 2 16 -1 19 -3 4 -6 -2 -5 -13z"/>
<path d="M13200 5501 c0 -10 -7 -21 -15 -25 -19 -7 -20 -36 -1 -36 8 0 17 -6
19 -12 3 -7 6 11 6 40 1 28 -1 52 -4 52 -3 0 -5 -9 -5 -19z"/>
<path d="M13165 5370 c-3 -5 -1 -10 4 -10 6 0 11 5 11 10 0 6 -2 10 -4 10 -3
0 -8 -4 -11 -10z"/>
<path d="M13042 5269 c2 -6 8 -10 13 -10 5 0 11 4 13 10 2 6 -4 11 -13 11 -9
0 -15 -5 -13 -11z"/>
<path d="M5938 5223 c7 -3 16 -2 19 1 4 3 -2 6 -13 5 -11 0 -14 -3 -6 -6z"/>
<path d="M5940 5190 c0 -11 4 -20 9 -20 6 0 9 9 8 20 -1 11 -5 20 -9 20 -4 0
-8 -9 -8 -20z"/>
<path d="M13045 5200 c-3 -5 -2 -10 4 -10 5 0 13 5 16 10 3 6 2 10 -4 10 -5 0
-13 -4 -16 -10z"/>
<path d="M5956 5079 c3 -46 7 -95 10 -109 2 -14 6 -54 9 -90 2 -36 6 -85 9
-110 3 -25 8 -81 11 -125 4 -44 8 -98 10 -120 2 -22 6 -76 10 -120 3 -44 10
-120 15 -170 13 -127 19 -190 25 -270 3 -38 10 -99 15 -135 5 -36 12 -94 15
-130 4 -36 8 -76 10 -90 2 -14 6 -45 9 -70 3 -25 15 -76 26 -115 50 -169 74
-355 72 -567 -1 -97 2 -179 7 -182 9 -6 5 458 -5 549 -3 28 -6 62 -6 78 -1 15
-4 27 -8 27 -4 0 -11 20 -14 45 -4 25 -11 45 -15 45 -4 0 -7 16 -6 36 0 19 -5
40 -12 46 -7 6 -12 24 -12 42 1 17 -3 54 -9 81 -7 32 -7 51 -1 53 6 3 5 10 -2
18 -7 8 -13 27 -14 42 -1 15 -7 59 -13 97 -13 83 -25 211 -25 277 0 26 -4 45
-8 42 -5 -2 -8 21 -7 53 1 32 -2 85 -6 118 -5 33 -10 80 -12 105 -2 25 -6 60
-10 78 -5 23 -3 32 7 32 9 0 10 3 3 8 -6 4 -18 91 -28 201 -10 107 -20 203
-22 215 -3 12 -9 58 -13 104 -11 109 -21 117 -15 11z"/>
<path d="M13050 5085 c0 -8 2 -15 4 -15 2 0 6 7 10 15 3 8 1 15 -4 15 -6 0
-10 -7 -10 -15z"/>
<path d="M12520 4950 c0 -13 11 -13 30 0 12 8 11 10 -7 10 -13 0 -23 -4 -23
-10z"/>
<path d="M12520 4890 c0 -5 5 -10 11 -10 5 0 7 5 4 10 -3 6 -8 10 -11 10 -2 0
-4 -4 -4 -10z"/>
<path d="M12499 4753 c-1 -5 -3 -17 -5 -28 -2 -11 -6 -51 -9 -90 -4 -54 -3
-66 6 -52 6 10 9 27 6 37 -3 11 -2 20 3 22 12 5 22 118 10 118 -5 0 -11 -3
-11 -7z"/>
<path d="M12527 4698 c-7 -25 0 -41 14 -33 12 8 12 42 0 49 -5 3 -11 -4 -14
-16z"/>
<path d="M12483 4545 c-3 -9 -3 -18 -1 -21 3 -3 8 4 11 16 6 23 -1 27 -10 5z"/>
<path d="M12457 4186 c-4 -10 -5 -21 -2 -24 9 -9 17 6 13 25 -3 17 -4 17 -11
-1z"/>
<path d="M12420 3920 c0 -79 0 -80 25 -80 23 0 25 4 25 46 0 27 4 43 10 39 6
-3 10 2 10 12 0 10 3 27 6 39 5 18 1 21 -35 22 l-41 2 0 -80z"/>
<path d="M6141 3524 c0 -11 3 -14 6 -6 3 7 2 16 -1 19 -3 4 -6 -2 -5 -13z"/>
<path d="M6206 2643 c-6 -14 -5 -15 5 -6 7 7 10 15 7 18 -3 3 -9 -2 -12 -12z"/>
<path d="M6211 2520 c0 -14 4 -32 9 -40 9 -13 10 -13 9 0 -1 8 -5 26 -9 40
l-8 25 -1 -25z"/>
<path d="M6224 2365 c4 -55 9 -113 11 -130 3 -16 8 -74 11 -127 6 -81 10 -98
23 -97 10 0 12 2 3 6 -6 2 -11 8 -9 11 4 6 -14 242 -27 371 -10 95 -19 70 -12
-34z"/>
<path d="M12422 1780 c-42 -3 -66 -10 -72 -20 -4 -8 -22 -33 -40 -55 -21 -26
-29 -46 -26 -60 3 -12 -2 -31 -10 -44 -18 -25 -13 -61 16 -101 17 -23 24 -26
78 -23 50 2 64 7 89 30 16 15 40 37 53 48 37 30 70 81 70 108 0 31 -53 113
-76 118 -11 2 -47 2 -82 -1z m122 -82 l31 -57 -43 -40 c-61 -58 -115 -55 -186
10 -36 32 -37 50 -6 110 19 36 29 39 104 37 l69 -3 31 -57z"/>
<path d="M6678 1743 c6 -2 18 -2 25 0 6 3 1 5 -13 5 -14 0 -19 -2 -12 -5z"/>
<path d="M6720 1748 c0 -2 8 -11 18 -19 16 -14 20 -14 32 -1 11 13 11 14 -1
10 -8 -3 -22 -1 -31 4 -10 5 -18 7 -18 6z"/>
<path d="M7313 1743 c-18 -2 -33 -9 -33 -15 0 -6 12 -8 31 -4 17 3 35 6 40 6
5 0 9 5 9 10 0 6 -3 9 -7 8 -5 0 -23 -3 -40 -5z"/>
<path d="M7413 1733 c9 -2 23 -2 30 0 6 3 -1 5 -18 5 -16 0 -22 -2 -12 -5z"/>
<path d="M6770 1540 c0 -5 5 -10 10 -10 6 0 10 5 10 10 0 6 -4 10 -10 10 -5 0
-10 -4 -10 -10z"/>
<path d="M9368 1484 c-10 -3 -18 -9 -18 -14 0 -14 -74 -28 -93 -16 -12 8 -20
7 -29 -2 -9 -9 -7 -12 10 -12 16 0 22 -6 22 -22 1 -22 1 -22 15 -5 11 15 17
17 32 8 17 -10 17 -11 -4 -17 -13 -3 -23 -10 -23 -14 0 -15 123 -23 435 -28
498 -8 556 -7 583 15 15 11 12 13 -28 11 -26 -1 -59 6 -77 16 -25 12 -33 13
-33 4 0 -10 -2 -10 -8 -1 -4 6 -40 15 -80 18 -39 4 -72 11 -72 16 0 4 -16 5
-35 2 -25 -4 -36 -1 -40 9 -4 10 -25 14 -88 12 -45 0 -95 3 -112 8 -34 10
-331 20 -357 12z"/>
<path d="M9120 1450 c0 -5 -8 -10 -17 -10 -10 0 -13 -3 -7 -9 5 -4 32 -5 59
-1 28 4 38 8 23 9 -15 0 -30 6 -33 11 -3 6 -10 10 -16 10 -5 0 -9 -4 -9 -10z"/>
<path d="M12508 1443 c7 -3 16 -2 19 1 4 3 -2 6 -13 5 -11 0 -14 -3 -6 -6z"/>
<path d="M8952 1426 c13 -14 28 -12 28 5 0 5 -9 9 -20 9 -17 0 -19 -2 -8 -14z"/>
<path d="M12478 1418 c-40 -10 -50 -31 -21 -42 31 -12 128 -17 142 -7 12 8 12
12 2 25 -11 13 -11 16 0 17 19 2 -41 17 -66 17 -11 0 -37 -5 -57 -10z m82 -18
c0 -5 -2 -10 -4 -10 -3 0 -8 5 -11 10 -3 6 -1 10 4 10 6 0 11 -4 11 -10z"/>
<path d="M12201 1346 c2 -2 18 -6 34 -10 22 -5 26 -4 15 4 -14 9 -59 15 -49 6z"/>
<path d="M9538 1303 c12 -2 32 -2 45 0 12 2 2 4 -23 4 -25 0 -35 -2 -22 -4z"/>
<path d="M12448 1303 c6 -2 18 -2 25 0 6 3 1 5 -13 5 -14 0 -19 -2 -12 -5z"/>
<path d="M11880 1270 c11 -7 60 -2 60 6 0 2 -16 3 -35 2 -20 -1 -31 -4 -25 -8z"/>
</g>
</svg>
